<svg id="Layer_5" enable-background="new 0 0 64 64" height="512" viewBox="0 0 64 64" width="512" xmlns="http://www.w3.org/2000/svg"><g><g><g><path d="m2 32h60v30h-60z" fill="#e6e9ed"/></g><g><path d="m42 54h16v4h-16z" fill="#b4dd7f"/></g><g><path d="m48 10h-32c-1.1 0-2.1-.45-2.83-1.17-.72-.73-1.17-1.73-1.17-2.83 0-2.21 1.79-4 4-4h36v4 4z" fill="#ecc19c"/></g><g><path d="m48 10h-32c-1.1 0-2.1-.45-2.83-1.17-.72-.73-1.17-1.73-1.17-2.83v26h40v-22z" fill="#cf9e76"/></g><g><path d="m21.62 20h6.05c-.43 1.76-.67 3.81-.67 6h-7c0-2.19.58-4.24 1.61-6.01z" fill="#69d6f4"/></g><g><path d="m27.67 32h-6.05c-1.02-1.77-1.62-3.81-1.62-6h7c0 2.19.25 4.23.67 6z" fill="#69d6f4"/></g><g><path d="m21.61 19.99c2.07-3.58 5.95-5.99 10.39-5.99-1.85 0-3.47 2.41-4.33 6h-6.05z" fill="#69d6f4"/></g><g><path d="m37 26h-10c0-2.19.24-4.24.67-6h8.66c.43 1.76.67 3.81.67 6z" fill="#69d6f4"/></g><g><path d="m27 26h10c0 2.19-.25 4.23-.67 6h-8.66c-.42-1.77-.67-3.81-.67-6z" fill="#69d6f4"/></g><g><path d="m42.38 20h-6.05c-.86-3.59-2.48-6-4.33-6 4.44 0 8.32 2.41 10.39 5.99z" fill="#69d6f4"/></g><g><path d="m37 26h7c0 2.19-.6 4.23-1.62 6h-4.38-1.67c.42-1.77.67-3.81.67-6z" fill="#69d6f4"/></g><g><path d="m44 26h-7c0-2.19-.24-4.24-.67-6h6.05l.01-.01c1.03 1.77 1.61 3.82 1.61 6.01z" fill="#69d6f4"/></g><g><path d="m36.33 20h-8.66c.86-3.59 2.48-6 4.33-6s3.47 2.41 4.33 6z" fill="#69d6f4"/></g><g><path d="m6 36h28v6h-28z" fill="#fcd770"/></g><g><path d="m42 36h16v12h-16z" fill="#ff826e"/></g></g><g><path d="m15 17h2v2h-2z"/><path d="m15 21h2v2h-2z"/><path d="m15 13h2v2h-2z"/><path d="m47 13h2v2h-2z"/><path d="m47 17h2v2h-2z"/><path d="m47 21h2v2h-2z"/><path d="m53 31v-20-5-5h-37c-2.757 0-5 2.243-5 5v25h-10v32h62v-32zm-37-28h35v3 3h-2v-4h-34v2h32v2h-31c-1.654 0-3-1.346-3-3s1.346-3 3-3zm-3 6.974c.838.635 1.87 1.026 3 1.026h35v20h-7.009c.663-1.583 1.009-3.284 1.009-5 0-7.168-5.832-13-13-13s-13 5.832-13 13c0 1.716.346 3.417 1.009 5h-7.009zm9.236 21.026c-.643-1.253-1.041-2.608-1.17-4h4.961c.047 1.377.186 2.728.42 4zm15.742-6c-.046-1.419-.184-2.763-.409-4h4.216c.626 1.221 1.034 2.57 1.164 4zm-1.999 0h-7.958c.052-1.447.217-2.791.46-4h7.038c.244 1.209.408 2.553.46 4zm1.126-6c-.368-1.295-.837-2.422-1.391-3.341 1.874.675 3.518 1.834 4.764 3.341zm-2.096 0h-6.019c.789-2.473 1.935-4 3.009-4s2.221 1.527 3.01 4zm-8.114 0h-3.373c1.246-1.507 2.891-2.665 4.764-3.341-.554.919-1.023 2.046-1.391 3.341zm-4.681 2h4.216c-.225 1.237-.363 2.581-.409 4h-4.971c.13-1.43.538-2.779 1.164-4zm6.275 10c-.254-1.258-.41-2.611-.461-4h7.945c-.051 1.389-.207 2.742-.461 4zm9.063 0c.234-1.272.373-2.623.42-4h4.961c-.129 1.392-.527 2.747-1.17 4zm-34.552 28h2v-2h-2v-24h34v24h-2v2h2v2h-34zm58 2h-22v-28h22z"/><path d="m59 35h-18v14h18zm-2 12h-14v-10h14z"/><path d="m59 59v-6h-18v6zm-10-2h-2v-2h2zm2-2h2v2h-2zm6 2h-2v-2h2zm-14-2h2v2h-2z"/><path d="m23 57h2v2h-2z"/><path d="m15 57h2v2h-2z"/><path d="m27 57h2v2h-2z"/><path d="m31 57h2v2h-2z"/><path d="m19 57h2v2h-2z"/><path d="m7 57h2v2h-2z"/><path d="m11 57h2v2h-2z"/><path d="m35 35h-30v8h30zm-2 6h-26v-4h26z"/><path d="m5 45h2v2h-2z"/><path d="m9 45h26v2h-26z"/><path d="m5 49h30v2h-30z"/><path d="m29 53h2v2h-2z"/><path d="m33 53h2v2h-2z"/><path d="m5 53h22v2h-22z"/></g></g></svg>