<svg id="Capa_1" enable-background="new 0 0 512 512" height="512" viewBox="0 0 512 512" width="512" xmlns="http://www.w3.org/2000/svg"><g><path d="m440.5 181h-369c25.75-15 29.112-30.164 33.125-42.188 4.234-12.686 14.908-17.812 28.282-17.812h246.185c13.374 0 24.048 5.126 28.282 17.812 4.014 12.024 7.376 27.188 33.126 42.188z" fill="#bb6b58"/><path d="m502 321h-492c26-25.352 29.828-42.241 33.944-57.889 3.855-14.652 15.626-22.111 30.777-22.111h362.557c15.151 0 26.923 7.459 30.777 22.111 4.117 15.648 7.945 32.538 33.945 57.889z" fill="#bb6b58"/><path d="m228.25 181h55.5v60h-55.5z" fill="#c5d3de"/><path d="m256 361h50v80h-50z" fill="#f5c6af"/><path d="m306 321h50v120h-50z" fill="#c5d3de"/><path d="m106 321h50v40h-50z" fill="#c5d3de"/><path d="m106 361h50v40h-50z" fill="#f5eeec"/><path d="m106 401h50v40h-50z" fill="#c5d3de"/><g fill="#f5eeec"><path d="m56 401h50v40h-50z"/><path d="m406 401h50v40h-50z"/><path d="m56 321h50v40h-50z"/><path d="m406 321h50v40h-50z"/></g><path d="m56 361h50v40h-50z" fill="#f5c6af"/><path d="m406 361h50v40h-50z" fill="#f5c6af"/><path d="m356 321h50v40h-50z" fill="#c5d3de"/><path d="m356 361h50v40h-50z" fill="#f5eeec"/><path d="m356 401h50v40h-50z" fill="#c5d3de"/><path d="m156 321h50v120h-50z" fill="#c5d3de"/><path d="m206 361h50v80h-50z" fill="#f5c6af"/><path d="m206 311h100v50h-100z" fill="#bb6b58"/><path d="m283.75 181h55.5v60h-55.5z" fill="#f5eeec"/><path d="m339.25 181h55.5v60h-55.5z" fill="#c5d3de"/><path d="m117.25 181h55.5v60h-55.5z" fill="#c5d3de"/><path d="m172.75 181h55.5v60h-55.5z" fill="#f5eeec"/><path d="m200.5 121h-67.593s15.242-13.769 17.593-20c5.848-15.502 13.431-30 30-30 11.046 0 20 8.954 20 20z" fill="#ffcd69"/><path d="m379.093 121h-67.593v-30c0-11.046 8.954-20 20-20 16.569 0 24.152 14.498 30 30 2.35 6.231 17.593 20 17.593 20z" fill="#ffcd69"/><path d="m256 241c-27.614 0-50 26.424-50 41.75v28.25h100v-28.25c0-15.326-22.386-41.75-50-41.75z" fill="#f5c6af"/><g><path d="m466.42 268.34c1.37 0 2.7-.28 3.96-.82 2.46-1.06 4.35-3.01 5.33-5.5.98-2.47.94-5.19-.11-7.63 0-.01 0-.01 0-.02-1.59-3.66-5.19-6.03-9.19-6.03-1.36 0-2.7.27-3.96.82-2.45 1.06-4.35 3.01-5.33 5.49-.98 2.49-.94 5.2.12 7.66 1.58 3.66 5.19 6.03 9.18 6.03z"/><path d="m508.975 313.84c-7.14-6.96-12.77-13.47-17.22-19.9-1.87-2.7-4.95-4.31-8.24-4.31-2.03 0-4 .62-5.68 1.78-4.53 3.14-5.67 9.38-2.53 13.92 1.31 1.88 2.71 3.79 4.18 5.67h-163.486v-21.797c4.322 1.114 9.283 1.797 15 1.797 5.522 0 10-4.477 10-10s-4.477-10-10-10c-12.069 0-18.094-4.243-20.835-7.211-.002-.003-.003-.006-.005-.009-2.55-4.41-5.85-8.76-9.77-12.78h127.958c5.51 0 10-4.49 10-10s-4.49-10-10-10h-23.6v-40h35.749c4.52 0 8.48-3.03 9.65-7.39 1.18-4.37-.71-8.98-4.62-11.25-20.66-12.04-28.38-35.85-28.67-36.71-4.91-14.74-16.799-23.33-33.689-24.51-5.89-5.58-11.31-11.58-12.34-13.74-4.48-11.87-13.78-36.4-39.329-36.4-16.54 0-29.999 13.46-29.999 30v20h-90.998v-20c0-16.54-13.46-30-29.999-30-25.55 0-34.849 24.53-39.329 36.4-1.03 2.16-6.45 8.15-12.34 13.74-16.89 1.18-28.779 9.77-33.689 24.51-.29.86-8.01 24.67-28.67 36.71-3.91 2.27-5.8 6.88-4.62 11.25 1.17 4.36 5.13 7.39 9.65 7.39h35.749v40h-32.57c-9.62 0-18.37 2.54-25.289 7.35-7.36 5.06-12.73 12.95-15.12 22.22 0 0-4.05 15.47-8.02 23.34-4.95 9.78-12.33 19.29-23.23 29.93-2.93 2.85-3.82 7.14-2.28 10.93 1.54 3.78 5.17 6.23 9.26 6.23h35.999v110c0 5.52 4.48 10 10 10h399.992c5.52 0 10-4.48 10-10v-110h35.999c4.09 0 7.72-2.45 9.26-6.23 1.541-3.79.651-8.08-2.279-10.93zm-62.975 77.16h-30v-20h30zm-80-20h30v20h-30zm30-20h-30v-20h30zm-100 0h-80v-30h80zm-113.25-160h35.5v40h-35.5zm91 0v40h-35.5v-40zm22.25 91.75v18.25h-80v-18.25c0-9.879 17.125-31.75 40-31.75 22 0 40 20.375 40 31.75zm-2.25-51.75v-40h35.5v40zm91 0h-35.5v-40h35.5zm-63.25-140c0-5.51 4.49-10 10-10 8.58 0 14.17 6.38 20.64 23.53.74 1.96 2.09 4.18 3.78 6.47h-34.42zm-161.64 13.53c6.47-17.15 12.06-23.53 20.64-23.53 5.51 0 10 4.49 10 10v20h-34.42c1.69-2.29 3.04-4.51 3.78-6.47zm-45.75 37.45c1.57-4.71 5.23-10.98 18.8-10.98h246.18c13.57 0 17.23 6.27 18.8 10.98.27.8 6.27 19.31 14.48 29.02h-312.74c8.21-9.71 14.21-28.22 14.48-29.02zm13.14 49.02h35.5v40h-35.5zm-83.15 101.93c4.92-9.73 9.38-26.75 9.51-27.28 1.35-4.95 3.57-8.3 7.19-10.88 3.59-2.49 8.28-3.76 13.92-3.77h136.89c-3.92 4.02-7.22 8.37-9.77 12.78-.002.003-.003.006-.005.009-2.741 2.968-8.766 7.211-20.835 7.211-5.522 0-10 4.477-10 10s4.478 10 10 10c5.717 0 10.678-.683 15-1.797v21.797h-163.49c4.73-6.06 8.52-11.98 11.59-18.07zm21.9 78.07h30v20h-30zm50 0h30v20h-30zm30-20h-30v-20h30zm-50-20v20h-30v-20zm-30 80h30v20h-30zm50 0h30v20h-30zm50-80h30v100h-30zm50 40h30v60h-30zm50 0h30v60h-30zm50-40h30v100h-30zm50 80h30v20h-30zm80 20h-30v-20h30zm0-80h-30v-20h30z"/></g></g></svg>